<?xml version="1.0" standalone="no"?>
<!DOCTYPE svg PUBLIC "-//W3C//DTD SVG 20010904//EN"
 "http://www.w3.org/TR/2001/REC-SVG-20010904/DTD/svg10.dtd">
<svg version="1.0" xmlns="http://www.w3.org/2000/svg"
 width="512.000000pt" height="512.000000pt" viewBox="0 0 512.000000 512.000000"
 preserveAspectRatio="xMidYMid meet">

<g transform="translate(0.000000,512.000000) scale(0.100000,-0.100000)"
fill="#000000" stroke="none">
<path d="M1965 5000 c-368 -58 -695 -204 -986 -438 -87 -70 -245 -232 -310
-317 -337 -440 -487 -1008 -403 -1528 49 -309 151 -587 458 -1259 206 -451
281 -641 341 -857 40 -147 65 -290 65 -381 0 -84 15 -114 58 -118 60 -6 65 7
59 148 -15 321 -108 592 -487 1420 -258 564 -361 878 -391 1197 -32 350 66
776 253 1093 89 152 171 256 307 390 273 270 581 434 970 517 144 31 453 43
608 23 434 -53 821 -239 1124 -540 322 -320 502 -704 554 -1178 9 -75 22 -163
30 -194 8 -32 135 -303 282 -604 210 -431 264 -550 256 -563 -9 -14 -39 -17
-214 -21 -226 -6 -240 -9 -297 -74 -17 -20 -36 -52 -41 -73 -7 -23 -11 -164
-11 -354 l0 -317 -28 -53 c-20 -39 -41 -62 -77 -84 l-48 -30 -251 -5 c-267 -6
-288 -10 -339 -58 -64 -60 -67 -76 -67 -352 0 -154 4 -259 10 -271 15 -28 74
-26 94 3 13 19 16 62 16 263 l0 242 26 24 c25 24 28 24 277 29 245 5 253 6
307 31 70 33 132 95 167 167 l28 57 5 342 c5 340 5 343 28 365 22 22 31 23
232 28 191 5 211 7 236 26 50 37 68 70 68 127 1 48 -18 91 -267 600 -269 550
-296 615 -297 716 -1 138 -69 434 -143 616 -272 673 -875 1144 -1598 1249
-147 22 -457 20 -604 -4z"/>
<path d="M2078 4393 c-9 -10 -30 -85 -47 -168 -18 -82 -34 -157 -37 -166 -3
-10 -32 -26 -72 -39 -37 -12 -97 -38 -134 -56 -37 -19 -73 -34 -79 -34 -6 0
-68 35 -138 79 -157 98 -168 103 -189 97 -10 -4 -80 -69 -156 -146 -113 -113
-138 -143 -134 -162 2 -13 44 -86 93 -162 l88 -138 -37 -77 c-20 -42 -47 -105
-59 -141 l-23 -65 -168 -37 c-93 -21 -175 -43 -182 -49 -11 -9 -14 -54 -14
-214 0 -180 2 -204 18 -217 9 -9 85 -30 167 -47 83 -18 157 -34 166 -37 8 -2
23 -30 33 -62 10 -31 36 -96 58 -143 l39 -85 -90 -145 c-50 -79 -91 -153 -91
-164 0 -26 278 -305 304 -305 10 0 85 43 166 96 l148 95 62 -31 c66 -34 91
-33 115 3 26 40 9 63 -82 112 -47 25 -91 45 -97 45 -7 0 -75 -40 -152 -90 -76
-49 -144 -90 -149 -90 -6 0 -49 39 -97 87 l-87 88 90 142 c49 79 89 150 89
158 0 9 -18 48 -39 88 -22 40 -56 119 -75 176 -19 57 -39 108 -45 114 -6 6
-84 27 -173 47 l-163 36 -3 127 c-3 125 -2 127 20 132 13 3 86 19 163 35 85
19 147 38 157 48 9 9 26 49 37 88 11 38 43 116 71 173 27 56 50 108 50 115 0
7 -38 72 -85 145 -47 72 -85 137 -85 144 0 14 161 177 174 177 5 0 71 -38 146
-85 75 -47 144 -85 154 -85 9 0 66 24 126 54 61 30 140 62 176 72 42 11 70 25
79 38 7 12 28 90 46 174 l33 152 128 0 c124 0 128 -1 133 -22 3 -13 17 -75 30
-138 42 -189 33 -175 131 -205 47 -14 129 -48 182 -76 53 -27 105 -49 114 -49
10 0 74 36 143 80 68 44 130 83 137 85 7 3 55 -37 106 -88 l94 -94 -76 -117
c-119 -183 -113 -157 -56 -271 27 -54 61 -137 76 -184 14 -47 30 -90 35 -95 5
-6 82 -26 171 -46 l163 -36 0 -129 0 -129 -150 -32 c-82 -18 -159 -37 -170
-42 -14 -6 -29 -37 -49 -98 -16 -49 -51 -133 -78 -187 -41 -84 -47 -101 -37
-120 6 -12 48 -80 92 -150 l80 -129 -89 -89 c-49 -49 -91 -89 -94 -89 -3 0
-68 40 -144 90 -77 49 -147 90 -156 90 -24 0 -171 -82 -184 -102 -14 -23 3
-69 30 -79 15 -5 41 2 87 23 l66 31 148 -97 c82 -53 155 -96 163 -96 7 0 78
64 157 142 110 109 143 148 143 168 0 14 -39 86 -90 168 l-90 143 34 67 c18
37 46 101 60 142 l27 75 162 34 c220 46 207 29 207 270 0 136 -3 192 -13 205
-9 12 -62 28 -177 53 -91 20 -170 41 -176 47 -7 6 -21 40 -33 76 -12 36 -36
96 -55 133 l-35 68 90 139 c59 92 89 148 89 167 0 24 -25 54 -143 171 -81 80
-152 142 -162 142 -10 0 -77 -38 -149 -84 -72 -47 -138 -87 -147 -91 -8 -3
-58 14 -110 39 -51 25 -115 50 -140 56 l-46 12 -33 156 c-33 157 -43 191 -64
204 -6 4 -99 8 -207 8 -174 0 -198 -2 -211 -17z"/>
<path d="M2189 3691 c-380 -53 -662 -359 -685 -741 -11 -176 50 -371 160 -517
53 -70 126 -138 156 -146 25 -6 70 28 70 54 0 10 -36 58 -81 106 -129 139
-189 286 -189 464 0 290 184 543 465 636 69 23 97 27 205 27 109 0 136 -4 206
-27 203 -67 363 -228 430 -433 26 -79 29 -102 28 -209 0 -102 -5 -132 -27
-201 -32 -97 -103 -208 -181 -284 -57 -56 -67 -81 -43 -114 58 -79 259 136
330 352 145 438 -106 899 -550 1012 -86 22 -217 32 -294 21z"/>
<path d="M2025 3326 c-103 -69 -181 -176 -211 -291 -20 -75 -18 -201 6 -277
34 -111 115 -216 207 -271 l33 -19 0 -607 c0 -645 -1 -631 47 -646 17 -4 29 1
48 19 l25 25 0 626 c0 413 -4 633 -10 646 -6 10 -32 30 -58 43 -174 88 -248
313 -163 492 15 33 41 75 57 93 l29 35 5 -138 c4 -121 7 -139 24 -152 16 -11
65 -14 231 -14 193 0 213 2 228 18 14 15 17 42 17 153 l1 134 36 -40 c19 -22
47 -65 62 -95 22 -47 26 -68 26 -150 0 -83 -4 -103 -28 -155 -32 -68 -101
-144 -167 -182 -25 -14 -48 -31 -52 -37 -4 -6 -8 -380 -8 -832 0 -783 1 -822
18 -837 20 -18 49 -22 69 -9 31 20 33 70 33 840 l1 777 40 25 c102 62 193 209
212 344 20 140 -24 281 -122 388 -69 75 -140 120 -183 116 -50 -5 -58 -31 -58
-195 l0 -143 -130 0 -130 0 0 158 c0 141 -2 161 -18 175 -28 26 -62 21 -117
-17z"/>
<path d="M2094 1097 c-31 -17 -34 -27 -34 -123 0 -75 3 -94 18 -107 23 -21 52
-22 78 -3 26 20 34 174 11 210 -19 28 -47 37 -73 23z"/>
</g>
</svg>
